<svg width="54" height="78" viewBox="0 0 54 78" fill="none" xmlns="http://www.w3.org/2000/svg">
<g filter="url(#filter0_d_397_154)">
<path d="M39.6157 0H13.7134C11.1372 0 8.66661 1.10603 6.845 3.07477C5.02339 5.04351 4.00003 7.71369 4.00003 10.4979V66.4868C3.99776 67.1034 4.14629 67.7097 4.43058 68.2443C4.71487 68.7789 5.12482 69.2229 5.61892 69.5312C6.11113 69.8383 6.66946 70 7.23781 70C7.80616 70 8.3645 69.8383 8.85671 69.5312L26.6645 58.4034L44.4724 69.5312C44.9658 69.8335 45.5241 69.9903 46.0913 69.9861C46.6584 69.9903 47.2167 69.8335 47.7102 69.5312C48.2043 69.2229 48.6142 68.7789 48.8985 68.2443C49.1828 67.7097 49.3313 67.1034 49.329 66.4868V10.4979C49.329 7.71369 48.3057 5.04351 46.4841 3.07477C44.6625 1.10603 42.1918 0 39.6157 0ZM42.8535 60.433L28.2834 51.3348C27.7912 51.0277 27.2329 50.866 26.6645 50.866C26.0962 50.866 25.5379 51.0277 25.0456 51.3348L10.4756 60.433V10.4979C10.4756 9.56984 10.8167 8.67978 11.4239 8.02353C12.0311 7.36729 12.8547 6.99861 13.7134 6.99861H39.6157C40.4744 6.99861 41.2979 7.36729 41.9052 8.02353C42.5124 8.67978 42.8535 9.56984 42.8535 10.4979V60.433Z" fill="#BABABA"/>
</g>
<defs>
<filter id="filter0_d_397_154" x="0" y="0" width="53.3291" height="78" filterUnits="userSpaceOnUse" color-interpolation-filters="sRGB">
<feFlood flood-opacity="0" result="BackgroundImageFix"/>
<feColorMatrix in="SourceAlpha" type="matrix" values="0 0 0 0 0 0 0 0 0 0 0 0 0 0 0 0 0 0 127 0" result="hardAlpha"/>
<feOffset dy="4"/>
<feGaussianBlur stdDeviation="2"/>
<feComposite in2="hardAlpha" operator="out"/>
<feColorMatrix type="matrix" values="0 0 0 0 0 0 0 0 0 0 0 0 0 0 0 0 0 0 0.25 0"/>
<feBlend mode="normal" in2="BackgroundImageFix" result="effect1_dropShadow_397_154"/>
<feBlend mode="normal" in="SourceGraphic" in2="effect1_dropShadow_397_154" result="shape"/>
</filter>
</defs>
</svg>
